# xmcd
#
# Track frame offsets:
#	150
#	4876
#	20898
#	34508
#	50589
#	64648
#	78507
#	97763
#	112837
#	124912
#	139097
#	151193
#	167944
#	183847
#	196287
#	213357
#	227415
#	240650
#	262929
#	278294
#
# Disc length: 3857 seconds
#
# Revision: 9
# Processed by: cddbd v1.5.2PL0 Copyright (c) Steve Scherf et al.
# Submitted via: EZCDAudioConverter 2.1.7.1
#
DISCID=fb0f0f14
DTITLE=Jan Hammer - Miami Vice - Complete Collection 1/2
DYEAR=2002
DGENRE=
TTITLE0=Original Miami Vice Theme
TTITLE1=Crockett's Theme
TTITLE2=New York Theme
TTITLE3=Tubbs And Valerie
TTITLE4=Evan
TTITLE5=Rum Cay
TTITLE6=One Way Out
TTITLE7=Flashback
TTITLE8=Chase
TTITLE9=Theresa
TTITLE10=Columbia
TTITLE11=Marina
TTITLE12=Last Flight
TTITLE13=Night Talk
TTITLE14=Payback
TTITLE15=Poem
TTITLE16=Rico's Blues
TTITLE17=The Trial And The Search
TTITLE18=Wedding
TTITLE19=Miami Vice Theme
EXTD=
EXTT0=
EXTT1=
EXTT2=
EXTT3=
EXTT4=
EXTT5=
EXTT6=
EXTT7=
EXTT8=
EXTT9=
EXTT10=
EXTT11=
EXTT12=
EXTT13=
EXTT14=
EXTT15=
EXTT16=
EXTT17=
EXTT18=
EXTT19=
PLAYORDER=
